<svg xmlns="http://www.w3.org/2000/svg" width="123.105" height="191.91" viewBox="0 0 123.105 191.91">
  <defs>
    <style>
      .cls-1, .cls-3 {
        fill: #00838e;
      }

      .cls-1 {
        stroke: #fff;
      }

      .cls-2 {
        fill: #fff;
      }
    </style>
  </defs>
  <g id="グループ_15" data-name="グループ 15" transform="translate(-322.5 -455.5)">
    <g id="グループ_14" data-name="グループ 14">
      <g id="グループ_11" data-name="グループ 11" transform="translate(-244 19)">
        <g id="グループ_5" data-name="グループ 5">
          <path id="パス_16" data-name="パス 16" class="cls-1" d="M66.053,2C32.3,2,5,31.833,5,68.719c0,50.039,61.053,123.906,61.053,123.906s61.053-73.867,61.053-123.906C127.105,31.833,99.806,2,66.053,2Zm0,90.547c-12.036,0-21.8-10.675-21.8-23.828s9.768-23.828,21.8-23.828,21.8,10.675,21.8,23.828S78.089,92.547,66.053,92.547Z" transform="translate(562 435)"/>
          <circle id="楕円形_6" data-name="楕円形 6" class="cls-2" cx="50" cy="50" r="50" transform="translate(578 450)"/>
        </g>
      </g>
      <g id="グループ_13" data-name="グループ 13" transform="translate(2.413 3.397)">
        <ellipse id="楕円形_7" data-name="楕円形 7" class="cls-3" cx="11.2" cy="10.7" rx="11.2" ry="10.7" transform="translate(370.593 505.335)"/>
        <path id="パス_48" data-name="パス 48" class="cls-3" d="M22.855,2,17.4,7.618H7.959A5.813,5.813,0,0,0,2,13.236V46.942A5.813,5.813,0,0,0,7.959,52.56H55.628a5.813,5.813,0,0,0,5.959-5.618V13.236a5.813,5.813,0,0,0-5.959-5.618H46.183L40.731,2Zm8.938,42.133c-8.223,0-14.9-6.292-14.9-14.044s6.674-14.044,14.9-14.044,14.9,6.292,14.9,14.044S40.016,44.133,31.793,44.133Z" transform="translate(350 486)"/>
      </g>
    </g>
  </g>
</svg>
