<svg xmlns="http://www.w3.org/2000/svg" width="122.105" height="190.625" viewBox="0 0 122.105 190.625">
  <defs>
    <style>
      .cls-1 {
        fill: #5f7c8a;
      }

      .cls-2 {
        fill: #fff;
      }

      .cls-3 {
        fill: none;
      }
    </style>
  </defs>
  <g id="グループ_19" data-name="グループ 19" transform="translate(-323 -210)">
    <g id="グループ_8" data-name="グループ 8" transform="translate(-21)">
      <g id="グループ_7" data-name="グループ 7" transform="translate(-223 -227)">
        <path id="パス_16" data-name="パス 16" class="cls-1" d="M66.053,2C32.3,2,5,31.833,5,68.719c0,50.039,61.053,123.906,61.053,123.906s61.053-73.867,61.053-123.906C127.105,31.833,99.806,2,66.053,2Zm0,90.547c-12.036,0-21.8-10.675-21.8-23.828s9.768-23.828,21.8-23.828,21.8,10.675,21.8,23.828c0,8.26-9.937,19.989-9.937,19.989S70.53,92.547,66.053,92.547Z" transform="translate(562 435)"/>
        <path id="パス_44" data-name="パス 44" class="cls-2" d="M50,0A50,50,0,1,1,0,50,50,50,0,0,1,50,0Z" transform="translate(578 450)"/>
      </g>
      <g id="filter_tilt_shift-24px" transform="translate(377.918 246.961)">
        <path id="パス_40" data-name="パス 40" class="cls-3" d="M0,0H54.082V53.039H0Z"/>
        <path id="パス_41" data-name="パス 41" class="cls-1" d="M24.529,7.018V2.05A25.271,25.271,0,0,0,11.167,7.485L14.734,11A20.173,20.173,0,0,1,24.529,7.018Zm18.385.467A25.271,25.271,0,0,0,29.553,2.05V7.018A20.173,20.173,0,0,1,39.348,11l3.567-3.517ZM46.958,24.06h5.074a24.2,24.2,0,0,0-5.551-13.083L42.89,14.469A19.315,19.315,0,0,1,46.958,24.06ZM11.192,14.469,7.6,10.977A24.2,24.2,0,0,0,2.05,24.06H7.124a19.315,19.315,0,0,1,4.069-9.591ZM7.124,28.979H2.05A24.2,24.2,0,0,0,7.6,42.062l3.592-3.517a19.138,19.138,0,0,1-4.069-9.566ZM34.576,26.52A7.537,7.537,0,1,0,27.041,33.9,7.448,7.448,0,0,0,34.576,26.52ZM42.89,38.57l3.592,3.517A24.28,24.28,0,0,0,52.032,29H46.958A19.326,19.326,0,0,1,42.89,38.57ZM29.553,46.021v4.968a25.271,25.271,0,0,0,13.362-5.435l-3.592-3.517a19.987,19.987,0,0,1-9.77,3.984Zm-18.385-.467a25.354,25.354,0,0,0,13.362,5.435V46.021a20.173,20.173,0,0,1-9.8-3.984Z" transform="translate(0 0)"/>
      </g>
    </g>
  </g>
</svg>
