<svg xmlns="http://www.w3.org/2000/svg" width="122.105" height="190.625" viewBox="0 0 122.105 190.625">
  <defs>
    <style>
      .cls-1 {
        fill: #3ca14e;
      }

      .cls-2 {
        fill: #fff;
      }

      .cls-3 {
        fill: none;
      }
    </style>
  </defs>
  <g id="グループ_18" data-name="グループ 18" transform="translate(-154 -210)">
    <g id="グループ_3" data-name="グループ 3" transform="translate(-202 32)">
      <path id="パス_12" data-name="パス 12" class="cls-1" d="M66.053,2C32.3,2,5,31.833,5,68.719c0,50.039,61.053,123.906,61.053,123.906s61.053-73.867,61.053-123.906C127.105,31.833,99.806,2,66.053,2Zm0,90.547c-12.036,0-21.8-10.675-21.8-23.828s9.768-23.828,21.8-23.828,21.8,10.675,21.8,23.828S78.089,92.547,66.053,92.547Z" transform="translate(351 176)"/>
      <circle id="楕円形_3" data-name="楕円形 3" class="cls-2" cx="50" cy="50" r="50" transform="translate(367 191)"/>
      <path id="パス_34" data-name="パス 34" class="cls-3" d="M0,0H76.656V75.582H0Z" transform="translate(380 203)"/>
      <path id="パス_35" data-name="パス 35" class="cls-1" d="M74.826,27.378a25.275,25.275,0,1,0-29.5,24.812V66.38H16.442v-10.8h3.611v-14.4a3.617,3.617,0,0,0-3.611-3.6H5.611A3.617,3.617,0,0,0,2,41.171v14.4H5.611V73.582h57.77v-7.2H52.549V52.407A25.231,25.231,0,0,0,74.826,27.378Zm-63.8,6.59a5.4,5.4,0,1,0-5.416-5.4A5.4,5.4,0,0,0,11.027,33.969Z" transform="translate(380 203)"/>
    </g>
  </g>
</svg>
