<svg xmlns="http://www.w3.org/2000/svg" width="122.105" height="190.625" viewBox="0 0 122.105 190.625">
  <defs>
    <style>
      .cls-1 {
        fill: #80b1fc;
      }

      .cls-2 {
        fill: #fff;
      }

      .cls-3 {
        fill: none;
      }
    </style>
  </defs>
  <g id="グループ_16" data-name="グループ 16" transform="translate(11 -456)">
    <g id="グループ_10" data-name="グループ 10">
      <g id="グループ_4" data-name="グループ 4" transform="translate(-578 19)">
        <path id="パス_16" data-name="パス 16" class="cls-1" d="M66.053,2C32.3,2,5,31.833,5,68.719c0,50.039,61.053,123.906,61.053,123.906s61.053-73.867,61.053-123.906C127.105,31.833,99.806,2,66.053,2Zm0,90.547c-12.036,0-21.8-10.675-21.8-23.828s9.768-23.828,21.8-23.828,21.8,10.675,21.8,23.828S78.089,92.547,66.053,92.547Z" transform="translate(562 435)"/>
        <circle id="楕円形_6" data-name="楕円形 6" class="cls-2" cx="50" cy="50" r="50" transform="translate(578 450)"/>
      </g>
      <g id="wc-black-18dp" transform="translate(18.194 489.847)">
        <path id="パス_21" data-name="パス 21" class="cls-3" d="M0,0H64.189V61.465H0Z"/>
        <path id="パス_22" data-name="パス 22" class="cls-1" d="M9.046,59.465V37.916H4v-15.8c0-3.161,3.028-5.747,6.728-5.747H20.82c3.7,0,6.728,2.586,6.728,5.747v15.8H22.5V59.465Zm42.051,0V42.226H61.189L52.644,20.3a6.759,6.759,0,0,0-6.392-3.936h-.4A6.725,6.725,0,0,0,39.457,20.3L30.912,42.226H41v17.24ZM15.774,13.493c3.734,0,6.728-2.557,6.728-5.747S19.508,2,15.774,2,9.046,4.557,9.046,7.747,12.04,13.493,15.774,13.493Zm30.277,0c3.734,0,6.728-2.557,6.728-5.747S49.785,2,46.051,2s-6.728,2.557-6.728,5.747S42.317,13.493,46.051,13.493Z" transform="translate(0 0)"/>
      </g>
    </g>
  </g>
</svg>
